<svg width="24" height="25" viewBox="0 0 24 25" fill="none" xmlns="http://www.w3.org/2000/svg">
<path fill-rule="evenodd" clip-rule="evenodd" d="M8.25 18.5C8.25 18.0858 8.58579 17.75 9 17.75H15C15.4142 17.75 15.75 18.0858 15.75 18.5C15.75 18.9142 15.4142 19.25 15 19.25H9C8.58579 19.25 8.25 18.9142 8.25 18.5Z" fill="white"/>
<path fill-rule="evenodd" clip-rule="evenodd" d="M8.69935 1.74999H15.3004C15.5203 1.74993 15.6888 1.74989 15.8362 1.7657C17.1903 1.91103 18.2268 3.02306 18.2897 4.37011C19.4805 4.72569 20.3289 5.82748 20.3443 7.09116C20.9453 7.27149 21.4637 7.55594 21.888 8.01431C22.54 8.71856 22.7421 9.58647 22.7498 10.6003C22.7572 11.575 22.5835 12.8067 22.3678 14.3363L21.9288 17.4499C21.7602 18.646 21.6232 19.6176 21.4101 20.379C21.1871 21.1756 20.8585 21.831 20.25 22.3348C19.6463 22.8347 18.9301 23.0502 18.0835 23.1518C17.265 23.25 16.2353 23.25 14.9532 23.25H9.04687C7.76478 23.25 6.73501 23.25 5.91647 23.1518C5.06993 23.0502 4.35372 22.8347 3.75003 22.3348C3.14152 21.831 2.81286 21.1756 2.58989 20.379C2.37676 19.6176 2.23979 18.646 2.07118 17.4499L1.63219 14.3363C1.41651 12.8067 1.24283 11.575 1.25023 10.6003C1.25792 9.58647 1.45997 8.71856 2.11196 8.01431C2.53621 7.55605 3.05445 7.27163 3.65528 7.09129C3.67058 5.82748 4.51917 4.72558 5.71005 4.37005C5.77295 3.02302 6.80943 1.91102 8.16359 1.7657C8.31094 1.74989 8.4795 1.74993 8.69935 1.74999ZM5.18902 6.82783C6.11481 6.74997 7.24973 6.74998 8.61594 6.75H15.384C16.75 6.74998 17.8848 6.74997 18.8105 6.82779C18.6734 6.22016 18.1306 5.75 17.4617 5.75H6.53787C5.86896 5.75 5.32618 6.22018 5.18902 6.82783ZM15.6761 3.25714C16.2263 3.31618 16.6611 3.72631 16.7677 4.25H7.2321C7.33862 3.72631 7.77344 3.31618 8.32365 3.25714C8.37993 3.2511 8.46013 3.25 8.74099 3.25H15.2588C15.5396 3.25 15.6198 3.2511 15.6761 3.25714ZM3.21267 9.03334C3.51557 8.70616 3.97106 8.48915 4.85612 8.37143C5.75726 8.25157 6.96357 8.25 8.67239 8.25H15.3276C17.0364 8.25 18.2427 8.25157 19.1439 8.37143C20.0289 8.48915 20.4844 8.70616 20.7873 9.03334C21.0832 9.35292 21.2436 9.78781 21.2498 10.6117C21.2563 11.4618 21.1002 12.5828 20.8738 14.1883L20.4509 17.1883C20.2731 18.4491 20.1486 19.321 19.9656 19.9747C19.7894 20.6042 19.582 20.9404 19.2934 21.1795C18.9999 21.4225 18.6058 21.5784 17.9048 21.6625C17.1861 21.7487 16.2465 21.75 14.9046 21.75H9.09536C7.75347 21.75 6.81393 21.7487 6.09519 21.6625C5.39417 21.5784 5.00014 21.4225 4.70664 21.1795C4.41795 20.9404 4.21058 20.6042 4.03437 19.9747C3.8514 19.321 3.7269 18.4491 3.54913 17.1883L3.12616 14.1883C2.89981 12.5828 2.74373 11.4618 2.75018 10.6117C2.75644 9.78781 2.91681 9.35292 3.21267 9.03334Z" fill="white"/>
</svg>
