<svg width="21" height="21" viewBox="0 0 21 21" fill="none" xmlns="http://www.w3.org/2000/svg">
<path d="M15.3637 7.59153H14.5455V5.95517C14.5455 3.69699 12.7128 1.86426 10.4546 1.86426C8.19645 1.86426 6.36373 3.69699 6.36373 5.95517V7.59153H5.54554C4.64554 7.59153 3.90918 8.32789 3.90918 9.22789V17.4097C3.90918 18.3097 4.64554 19.0461 5.54554 19.0461H15.3637C16.2637 19.0461 17.0001 18.3097 17.0001 17.4097V9.22789C17.0001 8.32789 16.2637 7.59153 15.3637 7.59153ZM8.00009 5.95517C8.00009 4.59699 9.09645 3.50062 10.4546 3.50062C11.8128 3.50062 12.9092 4.59699 12.9092 5.95517V7.59153H8.00009V5.95517ZM15.3637 17.4097H5.54554V9.22789H15.3637V17.4097ZM10.4546 14.9552C11.3546 14.9552 12.091 14.2188 12.091 13.3188C12.091 12.4188 11.3546 11.6824 10.4546 11.6824C9.55463 11.6824 8.81827 12.4188 8.81827 13.3188C8.81827 14.2188 9.55463 14.9552 10.4546 14.9552Z" fill="black"/>
</svg>
