<svg width="18" height="18" viewBox="0 0 18 18" fill="none" xmlns="http://www.w3.org/2000/svg">
<path d="M3.29858 5.43461C3.29858 5.11044 3.54472 4.84766 3.84835 4.84766H13.7441C14.0478 4.84766 14.2939 5.11044 14.2939 5.43461C14.2939 5.75877 14.0478 6.02155 13.7441 6.02155H3.84835C3.54472 6.02155 3.29858 5.75877 3.29858 5.43461ZM3.29858 8.36935C3.29858 8.04519 3.54472 7.7824 3.84835 7.7824H13.7441C14.0478 7.7824 14.2939 8.04519 14.2939 8.36935C14.2939 8.69351 14.0478 8.9563 13.7441 8.9563H3.84835C3.54472 8.9563 3.29858 8.69351 3.29858 8.36935ZM3.29858 11.3041C3.29858 10.9799 3.54472 10.7171 3.84835 10.7171H9.34602C9.64964 10.7171 9.89578 10.9799 9.89578 11.3041C9.89578 11.6283 9.64964 11.891 9.34602 11.891H3.84835C3.54472 11.891 3.29858 11.6283 3.29858 11.3041Z" fill="white"/>
<rect x="0.6" y="2.66543" width="16.8" height="12.1043" rx="2.4" stroke="white" stroke-width="1.2"/>
</svg>
