<svg width="28" height="28" viewBox="0 0 28 28" fill="none" xmlns="http://www.w3.org/2000/svg">
<path d="M21 9.91667H19.8334V7.58333C19.8334 4.36333 17.22 1.75 14 1.75C10.78 1.75 8.16669 4.36333 8.16669 7.58333H10.5C10.5 5.64667 12.0634 4.08333 14 4.08333C15.9367 4.08333 17.5 5.64667 17.5 7.58333V9.91667H7.00002C5.71669 9.91667 4.66669 10.9667 4.66669 12.25V23.9167C4.66669 25.2 5.71669 26.25 7.00002 26.25H21C22.2834 26.25 23.3334 25.2 23.3334 23.9167V12.25C23.3334 10.9667 22.2834 9.91667 21 9.91667ZM21 23.9167H7.00002V12.25H21V23.9167ZM14 20.4167C15.2834 20.4167 16.3334 19.3667 16.3334 18.0833C16.3334 16.8 15.2834 15.75 14 15.75C12.7167 15.75 11.6667 16.8 11.6667 18.0833C11.6667 19.3667 12.7167 20.4167 14 20.4167Z" fill="white"/>
</svg>
